<svg width="398" height="60" viewBox="0 0 398 60" fill="none" xmlns="http://www.w3.org/2000/svg">
<path d="M30.311 59.264C21.937 59.264 14.9323 56.4463 9.297 50.811C3.71433 45.1757 0.923 38.1447 0.923 29.718C0.923 21.2913 3.71433 14.2867 9.297 8.704C14.8797 3.016 21.8843 0.171996 30.311 0.171996C38.843 0.171996 45.7687 3.253 51.088 9.415L45.874 14.471C41.8187 9.573 36.631 7.124 30.311 7.124C24.0437 7.124 18.8033 9.23066 14.59 13.444C10.4293 17.6047 8.349 23.0293 8.349 29.718C8.349 36.4067 10.4293 41.8313 14.59 45.992C18.8033 50.2053 24.0437 52.312 30.311 52.312C36.8943 52.312 42.6087 49.547 47.454 44.017L52.747 49.152C50.061 52.3647 46.7693 54.8663 42.872 56.657C38.9747 58.395 34.7877 59.264 30.311 59.264ZM90.7867 47.256V53.892L59.9767 39.277V33.905L90.7867 19.29V25.926L67.5607 36.433V36.749L90.7867 47.256ZM131.066 33.905V39.277L100.256 53.892V47.256L123.482 36.749V36.433L100.256 25.926V19.29L131.066 33.905ZM157.283 52.628C160.864 52.628 163.787 51.3377 166.052 48.757C168.422 46.1763 169.607 42.8057 169.607 38.645C169.607 34.5897 168.422 31.2453 166.052 28.612C163.734 25.9787 160.811 24.662 157.283 24.662C153.807 24.662 150.884 25.9787 148.514 28.612C146.144 31.2453 144.959 34.5897 144.959 38.645C144.959 42.753 146.144 46.0973 148.514 48.678C150.884 51.3113 153.807 52.628 157.283 52.628ZM156.098 59.264C151.042 59.264 146.697 57.2627 143.063 53.26C139.481 49.2047 137.691 44.333 137.691 38.645C137.691 32.957 139.481 28.0853 143.063 24.03C146.697 20.0273 151.042 18.026 156.098 18.026C158.942 18.026 161.522 18.6317 163.84 19.843C166.21 21.0543 168.027 22.6607 169.291 24.662H169.607L169.291 19.29V1.436H176.559V58H169.607V52.628H169.291C168.027 54.6293 166.21 56.2357 163.84 57.447C161.522 58.6583 158.942 59.264 156.098 59.264ZM202.414 59.264C196.726 59.264 192.039 57.3153 188.352 53.418C184.666 49.5207 182.822 44.5963 182.822 38.645C182.822 32.7463 184.613 27.8483 188.194 23.951C191.776 20.001 196.358 18.026 201.94 18.026C207.681 18.026 212.237 19.8957 215.607 23.635C219.031 27.3217 220.742 32.5093 220.742 39.198L220.663 39.988H190.248C190.354 43.78 191.618 46.8347 194.04 49.152C196.463 51.4693 199.36 52.628 202.73 52.628C207.365 52.628 210.999 50.3107 213.632 45.676L220.11 48.836C218.372 52.1013 215.95 54.6557 212.842 56.499C209.788 58.3423 206.312 59.264 202.414 59.264ZM190.801 33.984H213C212.79 31.298 211.684 29.086 209.682 27.348C207.734 25.5573 205.1 24.662 201.782 24.662C199.044 24.662 196.674 25.5047 194.672 27.19C192.724 28.8753 191.433 31.14 190.801 33.984ZM255.276 59.264C246.902 59.264 239.897 56.4463 234.262 50.811C228.679 45.1757 225.888 38.1447 225.888 29.718C225.888 21.2913 228.679 14.2867 234.262 8.704C239.845 3.016 246.849 0.171996 255.276 0.171996C263.808 0.171996 270.734 3.253 276.053 9.415L270.839 14.471C266.784 9.573 261.596 7.124 255.276 7.124C249.009 7.124 243.768 9.23066 239.555 13.444C235.394 17.6047 233.314 23.0293 233.314 29.718C233.314 36.4067 235.394 41.8313 239.555 45.992C243.768 50.2053 249.009 52.312 255.276 52.312C261.859 52.312 267.574 49.547 272.419 44.017L277.712 49.152C275.026 52.3647 271.734 54.8663 267.837 56.657C263.94 58.395 259.753 59.264 255.276 59.264ZM291.438 58H284.17V19.29H291.122V25.61H291.438C292.175 23.556 293.676 21.818 295.941 20.396C298.258 18.9213 300.523 18.184 302.735 18.184C304.842 18.184 306.632 18.5 308.107 19.132L305.895 26.163C305 25.7943 303.578 25.61 301.629 25.61C298.89 25.61 296.494 26.716 294.44 28.928C292.439 31.14 291.438 33.7207 291.438 36.67V58ZM316.619 46.15C316.619 48.046 317.409 49.626 318.989 50.89C320.622 52.154 322.518 52.786 324.677 52.786C327.732 52.786 330.444 51.6537 332.814 49.389C335.237 47.1243 336.448 44.4647 336.448 41.41C334.184 39.6193 331.024 38.724 326.968 38.724C324.019 38.724 321.544 39.435 319.542 40.857C317.594 42.279 316.619 44.0433 316.619 46.15ZM326.02 18.026C331.392 18.026 335.632 19.4743 338.739 22.371C341.847 25.215 343.4 29.1387 343.4 34.142V58H336.448V52.628H336.132C333.13 57.052 329.128 59.264 324.124 59.264C319.858 59.264 316.277 58 313.38 55.472C310.536 52.944 309.114 49.784 309.114 45.992C309.114 41.9893 310.615 38.803 313.617 36.433C316.672 34.063 320.727 32.878 325.783 32.878C330.102 32.878 333.657 33.668 336.448 35.248V33.589C336.448 31.061 335.448 28.928 333.446 27.19C331.445 25.3993 329.101 24.504 326.415 24.504C322.36 24.504 319.147 26.2157 316.777 29.639L310.378 25.61C313.907 20.554 319.121 18.026 326.02 18.026ZM397.91 57.605C396.014 58.2897 393.802 58.632 391.274 58.632C388.114 58.632 385.481 57.6577 383.374 55.709C381.32 53.7603 380.267 51.048 380.214 47.572V25.926H362.834V58H355.566V25.926H348.298V19.29H355.566V13.681C355.566 11.785 355.882 10.047 356.514 8.467C357.199 6.887 358.121 5.544 359.279 4.438C360.438 3.27933 361.807 2.384 363.387 1.752C365.02 1.12 366.784 0.803997 368.68 0.803997C371.314 0.803997 373.473 1.25166 375.158 2.147L373.183 8.546C371.919 7.914 370.497 7.598 368.917 7.598C367.127 7.598 365.652 8.23 364.493 9.494C363.387 10.7053 362.834 12.338 362.834 14.392V19.29H380.214V7.44H387.482V19.29H396.962V25.926H387.482V45.202C387.482 47.7827 387.983 49.547 388.983 50.495C389.984 51.3903 391.116 51.838 392.38 51.838C392.96 51.838 393.513 51.7853 394.039 51.68C394.619 51.522 395.145 51.3377 395.619 51.127L397.91 57.605Z" fill="white"/>
</svg>
